<?xml version="1.0" standalone="no"?>
<!DOCTYPE svg PUBLIC "-//W3C//DTD SVG 20010904//EN"
 "http://www.w3.org/TR/2001/REC-SVG-20010904/DTD/svg10.dtd">
<svg version="1.0" xmlns="http://www.w3.org/2000/svg"
 width="70.000000pt" height="70.000000pt" viewBox="0 0 70.000000 70.000000"
 preserveAspectRatio="xMidYMid meet">
<metadata>
Created by potrace 1.11, written by Peter Selinger 2001-2013
</metadata>
<g transform="translate(0.000000,70.000000) scale(0.100000,-0.100000)"
fill="#000000" stroke="none">
<path d="M0 350 l0 -350 350 0 350 0 0 350 0 350 -350 0 -350 0 0 -350z m328
173 c40 -95 172 -422 172 -427 0 -3 -24 -6 -54 -6 l-55 0 -19 53 -20 52 -93 0
-94 0 -19 -53 -19 -52 -54 0 c-48 0 -54 2 -49 18 4 9 46 117 94 239 l87 223
51 0 52 0 20 -47z m332 -101 c0 -82 -3 -190 -6 -240 l-7 -92 -48 0 -49 0 0
240 0 240 55 0 55 0 0 -148z"/>
<path d="M226 360 c-14 -39 -26 -73 -26 -76 0 -2 27 -4 59 -4 l59 0 -25 68
c-14 37 -29 71 -33 75 -4 5 -19 -24 -34 -63z"/>
</g>
</svg>
